# xmcd CD database file
#
# Track frame offsets:
#	150
#	13407
#	28720
#	39997
#	50555
#	63477
#	75242
#	90272
#	100422
#	112995
#	126040
#	138735
#	152060
#	166035
#
# Disc length: 2442 seconds
#
# Revision: 3
# Processed by: cddbd v1.5.2PL0 Copyright (c) Steve Scherf et al.
# Submitted via: CDex 1.70beta2
#
DISCID=aa09880e
DTITLE=Γιώργος Ζαμπέτας  - Χίλια Περιστέρια
DYEAR=1991
DGENRE=Folk
TTITLE0=Χίλια Περιστέρια
TTITLE1=Κι Όλο Καλάραμε Ζωή
TTITLE2=Ταξίδι Μακρινό
TTITLE3=Τί Να Πω
TTITLE4=Με Τα Μάτια Κλαμένα
TTITLE5=Έρημος Μόνος Και Βαρύς
TTITLE6=Ο Πρωταγωνιστής
TTITLE7=Συγνώμη Σου Ζητώ
TTITLE8=Μα Η Κυρία
TTITLE9=Δεν Θυμάμαι
TTITLE10=Ποιά Είσαι Εσύ
TTITLE11=Σαφάρι Στην Αθήνα
TTITLE12=λίγη αγάπη
TTITLE13=ο άντρας το θέλει προσοχή
EXTD=YEAR: 1991
EXTT0=
EXTT1=
EXTT2=
EXTT3=
EXTT4=
EXTT5=
EXTT6=
EXTT7=
EXTT8=
EXTT9=
EXTT10=
EXTT11=
EXTT12=
EXTT13=
PLAYORDER=
